<?xml version="1.0" encoding="UTF-8" standalone="no"?>
<?xml-stylesheet href="styles.css" type="text/css"?>
<!DOCTYPE svg PUBLIC "-//W3C//DTD SVG 1.1//EN"
 "http://www.w3.org/Graphics/SVG/1.1/DTD/svg11.dtd">
<!-- Generated by graphviz version 5.0.1 (0)
 -->
<!-- Title: ER Pages: 1 -->
<svg width="1054pt" height="854pt"
 viewBox="0.00 0.00 1053.69 853.60" xmlns="http://www.w3.org/2000/svg" xmlns:xlink="http://www.w3.org/1999/xlink">
<g id="graph0" class="graph" transform="scale(1 1) rotate(0) translate(4 849.6)">
<title>ER</title>
<polygon fill="white" stroke="none" points="-4,4 -4,-849.6 1049.69,-849.6 1049.69,4 -4,4"/>
<!-- Users -->
<g id="node1" class="node">
<title>Users</title>
<polygon fill="none" stroke="black" points="460.27,-649.6 406.27,-649.6 406.27,-613.6 460.27,-613.6 460.27,-649.6"/>
<text text-anchor="middle" x="433.27" y="-627.9" font-family="Helvetica,Arial,sans-serif" font-size="14.00">Users</text>
</g>
<!-- likes -->
<g id="node8" class="node">
<title>likes</title>
<polygon fill="lightgrey" stroke="lightgrey" points="620,-487.11 579.62,-469.11 620,-451.11 660.39,-469.11 620,-487.11"/>
<text text-anchor="middle" x="620" y="-465.41" font-family="Helvetica,Arial,sans-serif" font-size="14.00">likes</text>
</g>
<!-- Users&#45;&#45;likes -->
<g id="edge30" class="edge">
<title>Users&#45;&#45;likes</title>
<path fill="none" stroke="black" d="M453.97,-613.59C492.33,-580.21 573.53,-509.55 606.08,-481.23"/>
</g>
<!-- owns -->
<g id="node9" class="node">
<title>owns</title>
<polygon fill="lightgrey" stroke="lightgrey" points="501.65,-432.42 457.41,-414.42 501.65,-396.42 545.89,-414.42 501.65,-432.42"/>
<text text-anchor="middle" x="501.65" y="-410.72" font-family="Helvetica,Arial,sans-serif" font-size="14.00">owns</text>
</g>
<!-- Users&#45;&#45;owns -->
<g id="edge36" class="edge">
<title>Users&#45;&#45;owns</title>
<path fill="none" stroke="black" d="M438.98,-613.45C452.08,-571.86 484.1,-470.17 496.57,-430.57"/>
</g>
<!-- follows_artists -->
<g id="node10" class="node">
<title>follows_artists</title>
<polygon fill="lightgrey" stroke="lightgrey" points="589.7,-662.24 536.58,-644.24 589.7,-626.24 642.83,-644.24 589.7,-662.24"/>
<text text-anchor="middle" x="589.7" y="-640.54" font-family="Helvetica,Arial,sans-serif" font-size="14.00">follows</text>
</g>
<!-- Users&#45;&#45;follows_artists -->
<g id="edge34" class="edge">
<title>Users&#45;&#45;follows_artists</title>
<path fill="none" stroke="black" d="M460.52,-633.8C484.24,-635.72 519.04,-638.53 546.55,-640.75"/>
</g>
<!-- follows_playlists -->
<g id="node11" class="node">
<title>follows_playlists</title>
<polygon fill="lightgrey" stroke="lightgrey" points="416.89,-420.06 363.76,-402.06 416.89,-384.06 470.01,-402.06 416.89,-420.06"/>
<text text-anchor="middle" x="416.89" y="-398.36" font-family="Helvetica,Arial,sans-serif" font-size="14.00">follows</text>
</g>
<!-- Users&#45;&#45;follows_playlists -->
<g id="edge32" class="edge">
<title>Users&#45;&#45;follows_playlists</title>
<path fill="none" stroke="black" d="M431.98,-613.59C428.91,-570.57 421.18,-462.28 418.14,-419.68"/>
</g>
<!-- user_name -->
<g id="node13" class="node">
<title>user_name</title>
<ellipse fill="lightblue" stroke="lightblue" cx="368.52" cy="-826.87" rx="55.49" ry="18"/>
<text text-anchor="middle" x="368.52" y="-823.17" font-family="Helvetica,Arial,sans-serif" font-size="14.00">user_name</text>
</g>
<!-- Users&#45;&#45;user_name -->
<g id="edge1" class="edge">
<title>Users&#45;&#45;user_name</title>
<path fill="none" stroke="black" d="M427.3,-649.62C414.96,-686.82 386.81,-771.73 374.48,-808.9"/>
</g>
<!-- email -->
<g id="node14" class="node">
<title>email</title>
<ellipse fill="lightblue" stroke="lightblue" cx="517.92" cy="-750.09" rx="32.49" ry="18"/>
<text text-anchor="middle" x="517.92" y="-746.39" font-family="Helvetica,Arial,sans-serif" font-size="14.00">email</text>
</g>
<!-- Users&#45;&#45;email -->
<g id="edge2" class="edge">
<title>Users&#45;&#45;email</title>
<path fill="none" stroke="black" d="M446.31,-649.85C462.54,-672.57 490.05,-711.07 505.82,-733.16"/>
</g>
<!-- user_uri -->
<g id="node15" class="node">
<title>user_uri</title>
<ellipse fill="lightblue" stroke="lightblue" cx="378.61" cy="-727.66" rx="42.49" ry="18"/>
<text text-anchor="middle" x="378.61" y="-723.96" font-family="Helvetica,Arial,sans-serif" font-size="14.00">user_uri</text>
</g>
<!-- Users&#45;&#45;user_uri -->
<g id="edge3" class="edge">
<title>Users&#45;&#45;user_uri</title>
<path fill="none" stroke="black" d="M422.99,-649.67C413.15,-666.95 398.42,-692.85 388.66,-710"/>
</g>
<!-- has_img -->
<g id="node16" class="node">
<title>has_img</title>
<ellipse fill="lightblue" stroke="lightblue" cx="467.9" cy="-827.6" rx="44.39" ry="18"/>
<text text-anchor="middle" x="467.9" y="-823.9" font-family="Helvetica,Arial,sans-serif" font-size="14.00">has_img</text>
</g>
<!-- Users&#45;&#45;has_img -->
<g id="edge4" class="edge">
<title>Users&#45;&#45;has_img</title>
<path fill="none" stroke="black" d="M436.47,-649.68C443.06,-687.02 458.12,-772.25 464.71,-809.55"/>
</g>
<!-- user_sid -->
<g id="node17" class="node">
<title>user_sid</title>
<ellipse fill="lightblue" stroke="lightblue" cx="252.04" cy="-674.74" rx="44.39" ry="18"/>
<text text-anchor="middle" x="252.04" y="-671.04" font-family="Helvetica,Arial,sans-serif" font-size="14.00">user_sid</text>
</g>
<!-- Users&#45;&#45;user_sid -->
<g id="edge5" class="edge">
<title>Users&#45;&#45;user_sid</title>
<path fill="none" stroke="black" d="M406.14,-638.05C375.43,-645.37 325.17,-657.33 290.44,-665.6"/>
</g>
<!-- password_hash -->
<g id="node18" class="node">
<title>password_hash</title>
<ellipse fill="lightblue" stroke="lightblue" cx="305.56" cy="-592.28" rx="72.29" ry="18"/>
<text text-anchor="middle" x="305.56" y="-588.58" font-family="Helvetica,Arial,sans-serif" font-size="14.00">password_hash</text>
</g>
<!-- Users&#45;&#45;password_hash -->
<g id="edge6" class="edge">
<title>Users&#45;&#45;password_hash</title>
<path fill="none" stroke="black" d="M406.19,-623.26C390.22,-618.35 369.61,-612 351.2,-606.33"/>
</g>
<!-- user_id -->
<g id="node37" class="node PrimaryKey">
<title>user_id</title>
<ellipse fill="lightblue" stroke="lightblue" cx="282.78" cy="-767.35" rx="39.79" ry="18"/>
<text text-anchor="middle" x="282.78" y="-763.65" font-family="Helvetica,Arial,sans-serif" font-size="14.00">user_id</text>
</g>
<!-- Users&#45;&#45;user_id -->
<g id="edge7" class="edge">
<title>Users&#45;&#45;user_id</title>
<path fill="none" stroke="black" d="M413.29,-649.62C383.86,-676.17 329.32,-725.37 300.96,-750.95"/>
</g>
<!-- Artists -->
<g id="node2" class="node">
<title>Artists</title>
<polygon fill="none" stroke="black" points="750.35,-602.54 695.35,-602.54 695.35,-566.54 750.35,-566.54 750.35,-602.54"/>
<text text-anchor="middle" x="722.85" y="-580.84" font-family="Helvetica,Arial,sans-serif" font-size="14.00">Artists</text>
</g>
<!-- produces -->
<g id="node5" class="node">
<title>produces</title>
<polygon fill="lightgrey" stroke="lightgrey" points="795.7,-451.53 729.34,-433.53 795.7,-415.53 862.06,-433.53 795.7,-451.53"/>
<text text-anchor="middle" x="795.7" y="-429.83" font-family="Helvetica,Arial,sans-serif" font-size="14.00">produces</text>
</g>
<!-- Artists&#45;&#45;produces -->
<g id="edge37" class="edge">
<title>Artists&#45;&#45;produces</title>
<path fill="none" stroke="black" d="M731.63,-566.32C746.02,-536.51 774.34,-477.8 787.99,-449.51"/>
</g>
<!-- participates_albums -->
<g id="node6" class="node">
<title>participates_albums</title>
<polygon fill="lightgrey" stroke="lightgrey" points="457.32,-502.16 378.22,-484.16 457.32,-466.16 536.41,-484.16 457.32,-502.16"/>
<text text-anchor="middle" x="457.32" y="-480.46" font-family="Helvetica,Arial,sans-serif" font-size="14.00">participates</text>
</g>
<!-- Artists&#45;&#45;participates_albums -->
<g id="edge39" class="edge">
<title>Artists&#45;&#45;participates_albums</title>
<path fill="none" stroke="black" d="M694.93,-573.99C644.6,-554.96 539.07,-515.07 487.28,-495.49"/>
</g>
<!-- participates_playlists -->
<g id="node7" class="node">
<title>participates_playlists</title>
<polygon fill="lightgrey" stroke="lightgrey" points="650.74,-396.5 571.65,-378.5 650.74,-360.5 729.84,-378.5 650.74,-396.5"/>
<text text-anchor="middle" x="650.74" y="-374.8" font-family="Helvetica,Arial,sans-serif" font-size="14.00">participates</text>
</g>
<!-- Artists&#45;&#45;participates_playlists -->
<g id="edge38" class="edge">
<title>Artists&#45;&#45;participates_playlists</title>
<path fill="none" stroke="black" d="M716.45,-566.25C702.59,-526.66 669.99,-433.5 656.62,-395.29"/>
</g>
<!-- Artists&#45;&#45;follows_artists -->
<g id="edge35" class="edge">
<title>Artists&#45;&#45;follows_artists</title>
<path fill="none" stroke="black" d="M695.26,-596.91C670.89,-607.84 635.75,-623.59 612.82,-633.87"/>
</g>
<!-- artist_popularity -->
<g id="node19" class="node">
<title>artist_popularity</title>
<ellipse fill="lightblue" stroke="lightblue" cx="808.61" cy="-663.35" rx="73.39" ry="18"/>
<text text-anchor="middle" x="808.61" y="-659.65" font-family="Helvetica,Arial,sans-serif" font-size="14.00">artist_popularity</text>
</g>
<!-- Artists&#45;&#45;artist_popularity -->
<g id="edge8" class="edge">
<title>Artists&#45;&#45;artist_popularity</title>
<path fill="none" stroke="black" d="M742.74,-602.82C756.79,-615.73 775.52,-632.94 789.42,-645.71"/>
</g>
<!-- artist_name -->
<g id="node20" class="node">
<title>artist_name</title>
<ellipse fill="lightblue" stroke="lightblue" cx="715.62" cy="-750.39" rx="57.69" ry="18"/>
<text text-anchor="middle" x="715.62" y="-746.69" font-family="Helvetica,Arial,sans-serif" font-size="14.00">artist_name</text>
</g>
<!-- Artists&#45;&#45;artist_name -->
<g id="edge9" class="edge">
<title>Artists&#45;&#45;artist_name</title>
<path fill="none" stroke="black" d="M722.06,-602.6C720.67,-634.51 717.79,-700.46 716.4,-732.35"/>
</g>
<!-- artist_uri -->
<g id="node21" class="node">
<title>artist_uri</title>
<ellipse fill="lightblue" stroke="lightblue" cx="906.81" cy="-667.52" rx="44.69" ry="18"/>
<text text-anchor="middle" x="906.81" y="-663.82" font-family="Helvetica,Arial,sans-serif" font-size="14.00">artist_uri</text>
</g>
<!-- Artists&#45;&#45;artist_uri -->
<g id="edge10" class="edge">
<title>Artists&#45;&#45;artist_uri</title>
<path fill="none" stroke="black" d="M750.39,-596.96C784.37,-612.29 841.93,-638.25 876.94,-654.04"/>
</g>
<!-- genres_artist -->
<g id="node22" class="node">
<title>genres_artist</title>
<ellipse fill="lightblue" stroke="lightblue" cx="821.49" cy="-760.65" rx="61.99" ry="18"/>
<text text-anchor="middle" x="821.49" y="-756.95" font-family="Helvetica,Arial,sans-serif" font-size="14.00">genres_artist</text>
</g>
<!-- Artists&#45;&#45;genres_artist -->
<g id="edge11" class="edge">
<title>Artists&#45;&#45;genres_artist</title>
<path fill="none" stroke="black" d="M733.03,-602.72C752.03,-636.65 792.66,-709.18 811.51,-742.83"/>
</g>
<!-- artist_sid -->
<g id="node38" class="node PrimaryKey">
<title>artist_sid</title>
<ellipse fill="lightblue" stroke="lightblue" cx="885.83" cy="-562.61" rx="46.29" ry="18"/>
<text text-anchor="middle" x="885.83" y="-558.91" font-family="Helvetica,Arial,sans-serif" font-size="14.00">artist_sid</text>
</g>
<!-- Artists&#45;&#45;artist_sid -->
<g id="edge12" class="edge">
<title>Artists&#45;&#45;artist_sid</title>
<path fill="none" stroke="black" d="M750.49,-580.82C775.56,-577.45 812.93,-572.42 842.06,-568.5"/>
</g>
<!-- Albums -->
<g id="node3" class="node">
<title>Albums</title>
<polygon fill="none" stroke="black" points="260.46,-328.08 198.46,-328.08 198.46,-292.08 260.46,-292.08 260.46,-328.08"/>
<text text-anchor="middle" x="229.46" y="-306.38" font-family="Helvetica,Arial,sans-serif" font-size="14.00">Albums</text>
</g>
<!-- Albums&#45;&#45;participates_albums -->
<g id="edge44" class="edge">
<title>Albums&#45;&#45;participates_albums</title>
<path fill="none" stroke="black" d="M254.62,-326.8C297.56,-359.6 387.31,-428.16 432.03,-462.33"/>
<path fill="none" stroke="none" d="M253.41,-328.38C296.35,-361.19 386.1,-429.75 430.81,-463.92"/>
<path fill="none" stroke="black" d="M252.2,-329.97C295.13,-362.78 384.88,-431.34 429.6,-465.5"/>
<polygon fill="black" stroke="black" points="428.8,-466.78 438.87,-470.07 433.05,-461.22 428.8,-466.78"/>
</g>
<!-- type -->
<g id="node28" class="node">
<title>type</title>
<ellipse fill="lightblue" stroke="lightblue" cx="30.59" cy="-308.33" rx="27.1" ry="18"/>
<text text-anchor="middle" x="30.59" y="-304.63" font-family="Helvetica,Arial,sans-serif" font-size="14.00">type</text>
</g>
<!-- Albums&#45;&#45;type -->
<g id="edge19" class="edge">
<title>Albums&#45;&#45;type</title>
<path fill="none" stroke="black" d="M198.38,-309.81C159.82,-309.47 94.67,-308.9 57.93,-308.57"/>
</g>
<!-- track_n -->
<g id="node29" class="node">
<title>track_n</title>
<ellipse fill="lightblue" stroke="lightblue" cx="69.38" cy="-403.15" rx="39.79" ry="18"/>
<text text-anchor="middle" x="69.38" y="-399.45" font-family="Helvetica,Arial,sans-serif" font-size="14.00">track_n</text>
</g>
<!-- Albums&#45;&#45;track_n -->
<g id="edge20" class="edge">
<title>Albums&#45;&#45;track_n</title>
<path fill="none" stroke="black" d="M198.21,-328.25C167.73,-345.97 121.99,-372.57 94,-388.84"/>
</g>
<!-- album_uri -->
<g id="node30" class="node">
<title>album_uri</title>
<ellipse fill="lightblue" stroke="lightblue" cx="165.9" cy="-427.5" rx="50.09" ry="18"/>
<text text-anchor="middle" x="165.9" y="-423.8" font-family="Helvetica,Arial,sans-serif" font-size="14.00">album_uri</text>
</g>
<!-- Albums&#45;&#45;album_uri -->
<g id="edge21" class="edge">
<title>Albums&#45;&#45;album_uri</title>
<path fill="none" stroke="black" d="M219.66,-328.17C207.69,-350.3 187.53,-387.53 175.6,-409.58"/>
</g>
<!-- album_name -->
<g id="node31" class="node">
<title>album_name</title>
<ellipse fill="lightblue" stroke="lightblue" cx="62.39" cy="-199.27" rx="62.29" ry="18"/>
<text text-anchor="middle" x="62.39" y="-195.57" font-family="Helvetica,Arial,sans-serif" font-size="14.00">album_name</text>
</g>
<!-- Albums&#45;&#45;album_name -->
<g id="edge22" class="edge">
<title>Albums&#45;&#45;album_name</title>
<path fill="none" stroke="black" d="M202.24,-292.03C170.44,-270.93 118.24,-236.31 87.41,-215.86"/>
</g>
<!-- restriction -->
<g id="node32" class="node">
<title>restriction</title>
<ellipse fill="lightblue" stroke="lightblue" cx="147.96" cy="-140.59" rx="48.99" ry="18"/>
<text text-anchor="middle" x="147.96" y="-136.89" font-family="Helvetica,Arial,sans-serif" font-size="14.00">restriction</text>
</g>
<!-- Albums&#45;&#45;restriction -->
<g id="edge23" class="edge">
<title>Albums&#45;&#45;restriction</title>
<path fill="none" stroke="black" d="M220.73,-291.95C205.01,-259.24 172.08,-190.77 156.49,-158.35"/>
</g>
<!-- genres_album -->
<g id="node33" class="node">
<title>genres_album</title>
<ellipse fill="lightblue" stroke="lightblue" cx="125.91" cy="-276.01" rx="66.89" ry="18"/>
<text text-anchor="middle" x="125.91" y="-272.31" font-family="Helvetica,Arial,sans-serif" font-size="14.00">genres_album</text>
</g>
<!-- Albums&#45;&#45;genres_album -->
<g id="edge24" class="edge">
<title>Albums&#45;&#45;genres_album</title>
<path fill="none" stroke="black" d="M198.39,-299.86C188.97,-296.76 178.47,-293.31 168.44,-290.01"/>
</g>
<!-- album_sid -->
<g id="node39" class="node PrimaryKey">
<title>album_sid</title>
<ellipse fill="lightblue" stroke="lightblue" cx="239.71" cy="-176.59" rx="51.19" ry="18"/>
<text text-anchor="middle" x="239.71" y="-172.89" font-family="Helvetica,Arial,sans-serif" font-size="14.00">album_sid</text>
</g>
<!-- Albums&#45;&#45;album_sid -->
<g id="edge25" class="edge">
<title>Albums&#45;&#45;album_sid</title>
<path fill="none" stroke="black" d="M230.84,-292.08C232.8,-266.6 236.35,-220.29 238.32,-194.74"/>
</g>
<!-- has_albums -->
<g id="node43" class="node">
<title>has_albums</title>
<polygon fill="lightgrey" stroke="lightgrey" points="494.11,-302.48 459.05,-284.48 494.11,-266.48 529.17,-284.48 494.11,-302.48"/>
<polygon fill="none" stroke="lightgrey" points="494.11,-306.98 450.29,-284.48 494.11,-261.98 537.93,-284.48 494.11,-306.98"/>
<text text-anchor="middle" x="494.11" y="-280.78" font-family="Helvetica,Arial,sans-serif" font-size="14.00">has</text>
</g>
<!-- Albums&#45;&#45;has_albums -->
<g id="edge46" class="edge">
<title>Albums&#45;&#45;has_albums</title>
<path fill="none" stroke="black" d="M260.4,-305.08C306.48,-300.62 393.18,-292.23 446.99,-287.03"/>
<path fill="none" stroke="none" d="M260.59,-307.07C306.68,-302.61 393.37,-294.22 447.18,-289.02"/>
<path fill="none" stroke="black" d="M260.79,-309.06C306.87,-304.6 393.57,-296.22 447.37,-291.01"/>
<polygon fill="black" stroke="black" points="447.54,-292.5 457.16,-288.05 446.86,-285.53 447.54,-292.5"/>
</g>
<!-- Playlists -->
<g id="node4" class="node">
<title>Playlists</title>
<polygon fill="none" stroke="black" points="560.28,-227 494.28,-227 494.28,-191 560.28,-191 560.28,-227"/>
<text text-anchor="middle" x="527.28" y="-205.3" font-family="Helvetica,Arial,sans-serif" font-size="14.00">Playlists</text>
</g>
<!-- Playlists&#45;&#45;participates_playlists -->
<g id="edge43" class="edge">
<title>Playlists&#45;&#45;participates_playlists</title>
<path fill="none" stroke="black" d="M542.11,-225.97C564.49,-256.7 609.87,-318.99 634.87,-353.31"/>
<path fill="none" stroke="none" d="M540.49,-227.14C562.88,-257.87 608.26,-320.17 633.25,-354.48"/>
<path fill="none" stroke="black" d="M538.87,-228.32C561.26,-259.05 606.64,-321.35 631.63,-355.66"/>
<polygon fill="black" stroke="black" points="630.71,-356.95 639.43,-362.97 636.37,-352.83 630.71,-356.95"/>
</g>
<!-- Playlists&#45;&#45;owns -->
<g id="edge41" class="edge">
<title>Playlists&#45;&#45;owns</title>
<path fill="none" stroke="black" d="M526.99,-227.48C522.47,-263.69 512.35,-344.84 507.04,-387.41"/>
<path fill="none" stroke="none" d="M525,-227.23C520.49,-263.44 510.36,-344.59 505.05,-387.16"/>
<path fill="none" stroke="black" d="M523.02,-226.99C518.5,-263.19 508.38,-344.34 503.07,-386.92"/>
<polygon fill="black" stroke="black" points="501.58,-386.75 503.81,-397.1 508.52,-387.61 501.58,-386.75"/>
</g>
<!-- Playlists&#45;&#45;follows_playlists -->
<g id="edge33" class="edge">
<title>Playlists&#45;&#45;follows_playlists</title>
<path fill="none" stroke="black" d="M516.89,-227.17C495.26,-264.99 445.73,-351.63 425.61,-386.8"/>
</g>
<!-- has_playlists -->
<g id="node12" class="node">
<title>has_playlists</title>
<polygon fill="lightgrey" stroke="lightgrey" points="666,-209.38 631.14,-191.38 666,-173.38 700.85,-191.38 666,-209.38"/>
<text text-anchor="middle" x="666" y="-187.68" font-family="Helvetica,Arial,sans-serif" font-size="14.00">has</text>
</g>
<!-- Playlists&#45;&#45;has_playlists -->
<g id="edge47" class="edge">
<title>Playlists&#45;&#45;has_playlists</title>
<path fill="none" stroke="black" d="M560.25,-202.8C580.41,-200.24 606.22,-196.96 627.27,-194.29"/>
<path fill="none" stroke="none" d="M560.51,-204.78C580.66,-202.22 606.47,-198.94 627.52,-196.27"/>
<path fill="none" stroke="black" d="M560.76,-206.77C580.92,-204.21 606.73,-200.93 627.77,-198.25"/>
<polygon fill="black" stroke="black" points="628.25,-199.71 637.73,-194.97 627.37,-192.76 628.25,-199.71"/>
</g>
<!-- playlist_name -->
<g id="node34" class="node">
<title>playlist_name</title>
<ellipse fill="lightblue" stroke="lightblue" cx="605.54" cy="-35.66" rx="64.99" ry="18"/>
<text text-anchor="middle" x="605.54" y="-31.96" font-family="Helvetica,Arial,sans-serif" font-size="14.00">playlist_name</text>
</g>
<!-- Playlists&#45;&#45;playlist_name -->
<g id="edge26" class="edge">
<title>Playlists&#45;&#45;playlist_name</title>
<path fill="none" stroke="black" d="M535.51,-190.78C550.58,-157.4 582.44,-86.84 597.42,-53.64"/>
</g>
<!-- playlist_uri -->
<g id="node35" class="node">
<title>playlist_uri</title>
<ellipse fill="lightblue" stroke="lightblue" cx="527.01" cy="-83.15" rx="51.99" ry="18"/>
<text text-anchor="middle" x="527.01" y="-79.45" font-family="Helvetica,Arial,sans-serif" font-size="14.00">playlist_uri</text>
</g>
<!-- Playlists&#45;&#45;playlist_uri -->
<g id="edge27" class="edge">
<title>Playlists&#45;&#45;playlist_uri</title>
<path fill="none" stroke="black" d="M527.24,-190.97C527.19,-167.18 527.1,-125.53 527.05,-101.56"/>
</g>
<!-- is_public -->
<g id="node36" class="node">
<title>is_public</title>
<ellipse fill="lightblue" stroke="lightblue" cx="406.2" cy="-117.16" rx="44.69" ry="18"/>
<text text-anchor="middle" x="406.2" y="-113.46" font-family="Helvetica,Arial,sans-serif" font-size="14.00">is_public</text>
</g>
<!-- Playlists&#45;&#45;is_public -->
<g id="edge28" class="edge">
<title>Playlists&#45;&#45;is_public</title>
<path fill="none" stroke="black" d="M503.36,-190.86C481.17,-174.03 448.46,-149.22 427.24,-133.12"/>
</g>
<!-- playlist_sid -->
<g id="node40" class="node PrimaryKey">
<title>playlist_sid</title>
<ellipse fill="lightblue" stroke="lightblue" cx="460.54" cy="-18" rx="53.89" ry="18"/>
<text text-anchor="middle" x="460.54" y="-14.3" font-family="Helvetica,Arial,sans-serif" font-size="14.00">playlist_sid</text>
</g>
<!-- Playlists&#45;&#45;playlist_sid -->
<g id="edge29" class="edge">
<title>Playlists&#45;&#45;playlist_sid</title>
<path fill="none" stroke="black" d="M520.88,-190.69C508.09,-154.09 479.52,-72.3 466.83,-35.98"/>
</g>
<!-- track_name -->
<g id="node23" class="node">
<title>track_name</title>
<ellipse fill="lightblue" stroke="lightblue" cx="779.15" cy="-103.39" rx="57.39" ry="18"/>
<text text-anchor="middle" x="779.15" y="-99.69" font-family="Helvetica,Arial,sans-serif" font-size="14.00">track_name</text>
</g>
<!-- track_uri -->
<g id="node24" class="node">
<title>track_uri</title>
<ellipse fill="lightblue" stroke="lightblue" cx="873.38" cy="-209.1" rx="44.39" ry="18"/>
<text text-anchor="middle" x="873.38" y="-205.4" font-family="Helvetica,Arial,sans-serif" font-size="14.00">track_uri</text>
</g>
<!-- duration -->
<g id="node25" class="node">
<title>duration</title>
<ellipse fill="lightblue" stroke="lightblue" cx="875.91" cy="-94.25" rx="42.49" ry="18"/>
<text text-anchor="middle" x="875.91" y="-90.55" font-family="Helvetica,Arial,sans-serif" font-size="14.00">duration</text>
</g>
<!-- is_explicit -->
<g id="node26" class="node">
<title>is_explicit</title>
<ellipse fill="lightblue" stroke="lightblue" cx="958.22" cy="-165.09" rx="48.99" ry="18"/>
<text text-anchor="middle" x="958.22" y="-161.39" font-family="Helvetica,Arial,sans-serif" font-size="14.00">is_explicit</text>
</g>
<!-- track_popularity -->
<g id="node27" class="node">
<title>track_popularity</title>
<ellipse fill="lightblue" stroke="lightblue" cx="972.9" cy="-271.32" rx="72.59" ry="18"/>
<text text-anchor="middle" x="972.9" y="-267.62" font-family="Helvetica,Arial,sans-serif" font-size="14.00">track_popularity</text>
</g>
<!-- track_sid -->
<g id="node41" class="node WeakKey">
<title>track_sid</title>
<ellipse fill="lightblue" stroke="lightblue" cx="911.42" cy="-346.11" rx="46.29" ry="18"/>
<text text-anchor="middle" x="911.42" y="-342.41" font-family="Helvetica,Arial,sans-serif" font-size="14.00">track_sid</text>
</g>
<!-- Tracks -->
<g id="node42" class="node">
<title>Tracks</title>
<polygon fill="none" stroke="black" points="805.14,-284.13 749.14,-284.13 749.14,-248.13 805.14,-248.13 805.14,-284.13"/>
<polygon fill="none" stroke="black" points="809.14,-288.13 745.14,-288.13 745.14,-244.13 809.14,-244.13 809.14,-288.13"/>
<text text-anchor="middle" x="777.14" y="-262.43" font-family="Helvetica,Arial,sans-serif" font-size="14.00">Tracks</text>
</g>
<!-- Tracks&#45;&#45;produces -->
<g id="edge42" class="edge">
<title>Tracks&#45;&#45;produces</title>
<path fill="none" stroke="black" d="M781.59,-288.14C784.94,-318.34 790.93,-372.35 794.58,-405.29"/>
<path fill="none" stroke="none" d="M779.61,-288.36C782.96,-318.56 788.94,-372.57 792.6,-405.51"/>
<path fill="none" stroke="black" d="M777.62,-288.58C780.97,-318.78 786.96,-372.79 790.61,-405.73"/>
<polygon fill="black" stroke="black" points="789.16,-406.26 793.74,-415.81 796.12,-405.48 789.16,-406.26"/>
</g>
<!-- Tracks&#45;&#45;likes -->
<g id="edge31" class="edge">
<title>Tracks&#45;&#45;likes</title>
<path fill="none" stroke="black" d="M760.03,-288.24C727.33,-330.47 656.9,-421.45 630.38,-455.7"/>
</g>
<!-- Tracks&#45;&#45;has_playlists -->
<g id="edge40" class="edge">
<title>Tracks&#45;&#45;has_playlists</title>
<path fill="none" stroke="black" d="M744.99,-244.51C724.09,-230.45 697.78,-212.76 681.43,-201.76"/>
</g>
<!-- Tracks&#45;&#45;track_name -->
<g id="edge13" class="edge">
<title>Tracks&#45;&#45;track_name</title>
<path fill="none" stroke="black" d="M777.42,-243.84C777.82,-211.28 778.56,-151.35 778.93,-121.41"/>
</g>
<!-- Tracks&#45;&#45;track_uri -->
<g id="edge14" class="edge">
<title>Tracks&#45;&#45;track_uri</title>
<path fill="none" stroke="black" d="M809.19,-247.14C821.87,-239.62 836.24,-231.11 848.16,-224.04"/>
</g>
<!-- Tracks&#45;&#45;duration -->
<g id="edge15" class="edge">
<title>Tracks&#45;&#45;duration</title>
<path fill="none" stroke="black" d="M789.85,-244.01C809.65,-209.55 847.47,-143.75 865.65,-112.11"/>
</g>
<!-- Tracks&#45;&#45;is_explicit -->
<g id="edge16" class="edge">
<title>Tracks&#45;&#45;is_explicit</title>
<path fill="none" stroke="black" d="M809.51,-248.06C844.2,-228.71 898.65,-198.33 931.15,-180.19"/>
</g>
<!-- Tracks&#45;&#45;track_popularity -->
<g id="edge17" class="edge">
<title>Tracks&#45;&#45;track_popularity</title>
<path fill="none" stroke="black" d="M809.47,-266.98C834.12,-267.64 869.04,-268.57 900.27,-269.4"/>
</g>
<!-- Tracks&#45;&#45;track_sid -->
<g id="edge18" class="edge">
<title>Tracks&#45;&#45;track_sid</title>
<path fill="none" stroke="black" d="M809.31,-285.28C832.74,-299.24 864.05,-317.89 885.8,-330.85"/>
</g>
<!-- Tracks&#45;&#45;has_albums -->
<g id="edge45" class="edge">
<title>Tracks&#45;&#45;has_albums</title>
<path fill="none" stroke="black" d="M745.08,-270.21C695.74,-273.41 601.06,-279.55 543.18,-283.3"/>
<path fill="none" stroke="none" d="M744.95,-268.21C695.61,-271.41 600.93,-277.55 543.05,-281.3"/>
<path fill="none" stroke="black" d="M744.82,-266.22C695.48,-269.42 600.8,-275.56 542.92,-279.31"/>
<polygon fill="black" stroke="black" points="542.8,-277.81 533.05,-281.95 543.25,-284.8 542.8,-277.81"/>
</g>
</g>
</svg>
